<svg width="148" height="28" viewBox="0 0 148 28" fill="none" xmlns="http://www.w3.org/2000/svg">
<circle cx="13.9999" cy="14.0001" r="12.3744" fill="white"/>
<path d="M13.558 9.56264C13.7239 9.09417 14.3865 9.09417 14.5525 9.56264L15.4993 12.2348C15.5524 12.3848 15.6704 12.5028 15.8204 12.5559L18.4926 13.5027C18.961 13.6687 18.961 14.3312 18.4926 14.4972L15.8204 15.4441C15.6704 15.4972 15.5524 15.6152 15.4993 15.7651L14.5525 18.4373C14.3865 18.9058 13.7239 18.9058 13.558 18.4373L12.6111 15.7652C12.558 15.6152 12.44 15.4972 12.29 15.4441L9.61786 14.4972C9.14939 14.3312 9.14939 13.6687 9.61786 13.5027L12.29 12.5559C12.44 12.5028 12.558 12.3848 12.6111 12.2348L13.558 9.56264Z" fill="#050505"/>
<path d="M16.242 5.63309C16.4189 4.97296 16.0272 4.28618 15.3501 4.19298C13.9609 4.00175 12.5421 4.10723 11.1885 4.50817C9.43801 5.02669 7.86499 6.0192 6.64336 7.37595C5.42174 8.7327 4.5991 10.4008 4.26639 12.196C4.00914 13.584 4.05255 15.0061 4.38794 16.3677C4.5514 17.0313 5.27537 17.3491 5.91339 17.1042C6.55142 16.8593 6.85894 16.1438 6.72327 15.474C6.53523 14.5455 6.52581 13.5859 6.69983 12.647C6.94936 11.3006 7.56633 10.0495 8.48255 9.03196C9.39877 8.0144 10.5785 7.27002 11.8914 6.88113C12.807 6.60993 13.7624 6.51897 14.7054 6.60895C15.3857 6.67386 16.0651 6.29322 16.242 5.63309Z" fill="#050505"/>
<path d="M11.7582 22.3669C11.5813 23.027 11.9731 23.7138 12.6501 23.807C14.0393 23.9982 15.4582 23.8928 16.8117 23.4918C18.5622 22.9733 20.1353 21.9808 21.3569 20.6241C22.5785 19.2673 23.4011 17.5992 23.7338 15.804C23.9911 14.416 23.9477 12.9939 23.6123 11.6323C23.4488 10.9687 22.7249 10.6509 22.0868 10.8958C21.4488 11.1407 21.1413 11.8562 21.277 12.526C21.465 13.4545 21.4744 14.4141 21.3004 15.353C21.0509 16.6994 20.4339 17.9505 19.5177 18.968C18.6015 19.9856 17.4217 20.73 16.1088 21.1189C15.1933 21.3901 14.2379 21.481 13.2949 21.3911C12.6146 21.3261 11.9351 21.7068 11.7582 22.3669Z" fill="#050505"/>
<path d="M21.4426 9.56894C22.0299 9.21934 22.2282 8.45396 21.8082 7.9149C21.0386 6.92735 20.0884 6.09458 19.0085 5.46112C18.419 5.11533 17.6862 5.41236 17.4166 6.04035C17.1471 6.66835 17.4452 7.38783 18.0198 7.75787C18.6346 8.15385 19.1877 8.63857 19.6609 9.19619C20.103 9.71728 20.8554 9.91854 21.4426 9.56894Z" fill="#050505"/>
<path d="M6.55765 18.4311C5.97042 18.7807 5.77204 19.546 6.19212 20.0851C6.96171 21.0727 7.91186 21.9054 8.99179 22.5389C9.58128 22.8847 10.314 22.5876 10.5836 21.9596C10.8532 21.3316 10.5551 20.6122 9.98048 20.2421C9.36564 19.8461 8.8126 19.3614 8.33942 18.8038C7.89724 18.2827 7.14488 18.0815 6.55765 18.4311Z" fill="#050505"/>
<rect x="20.2369" y="20.5136" width="2.77186" height="5.34573" transform="rotate(-45 20.2369 20.5136)" fill="#050505"/>
<path d="M41.6425 22.2059C38.1795 22.2059 35.7403 20.0076 35.7403 16.1832V11.2145H33V7.17934H35.7403V3.29472H39.9863V7.17934H43.63V11.2145H39.9863V15.9724C39.9863 17.3576 41.0101 18.2309 42.2749 18.2309C42.6664 18.2309 43.2385 18.1406 43.5698 18.0201L43.7806 21.7843C43.2385 22.0553 42.3953 22.2059 41.6425 22.2059Z" fill="white"/>
<path d="M45.0942 21.965V7.17934H49.3402V8.92591C50.0629 7.66115 51.6288 6.87821 52.8936 6.87821C53.6464 6.87821 54.2186 6.96855 54.6703 7.14923L54.4294 11.1242C53.8873 10.9134 53.1646 10.7929 52.5623 10.7929C51.5987 10.7929 50.0629 11.5759 49.3402 13.0213V21.965H45.0942Z" fill="white"/>
<path d="M56.6528 27.9876L59.905 20.7604L54.2438 7.17934H58.821L62.1033 15.8219L65.3857 7.17934H69.9629L61.23 27.9876H56.6528Z" fill="white"/>
<path d="M86.5348 7.17934V21.965H82.2889V11.2145H76.5673V21.965H72.3214V11.2145H69.5811V7.17934H72.3214V6.09526C72.3214 2.27087 74.7605 0.0726007 78.2236 0.0726007C78.9764 0.0726007 79.8196 0.253282 80.3616 0.524301L80.1508 4.25835C79.8497 4.16801 79.2775 4.04756 78.856 4.04756C77.5912 4.04756 76.5673 4.95096 76.5673 6.30605V7.17934H86.5348ZM84.3968 0.0123749C85.8121 0.0123749 86.9865 1.18679 86.9865 2.572C86.9865 3.98733 85.8121 5.16175 84.3968 5.16175C83.0116 5.16175 81.8071 3.98733 81.8071 2.572C81.8071 1.18679 83.0116 0.0123749 84.3968 0.0123749Z" fill="white"/>
<path d="M92.9763 7.17934V8.92591C93.7893 7.66115 95.3552 6.87821 96.9813 6.87821C100.715 6.87821 103.004 9.43784 103.004 13.5935V21.965H98.758V14.3162C98.758 12.2685 97.6739 11.0941 95.8973 11.0941C94.7529 11.0941 93.5785 11.7566 92.9763 12.7804V21.965H88.7303V7.17934H92.9763Z" fill="white"/>
<path d="M119.815 0.88566V21.965H115.569V20.2184C114.847 21.4229 113.07 22.2661 111.203 22.2661C107.348 22.2661 104.337 18.8332 104.337 14.5571C104.337 10.281 107.348 6.87821 111.203 6.87821C113.07 6.87821 114.847 7.72138 115.569 8.92591V0.88566H119.815ZM108.493 14.5571C108.493 16.665 110.089 18.2309 112.136 18.2309C113.612 18.2309 114.937 17.448 115.569 16.394V12.7804C114.937 11.6963 113.642 10.8833 112.136 10.8833C110.089 10.8833 108.493 12.4492 108.493 14.5571Z" fill="white"/>
<path d="M129.052 22.2661C124.746 22.2661 121.313 18.8934 121.313 14.4969C121.313 10.1907 124.656 6.87821 128.992 6.87821C132.997 6.87821 136.129 9.97988 136.129 13.9247C136.129 14.4366 136.069 15.0991 135.979 15.6713H125.409C125.83 17.5985 127.185 18.6224 129.173 18.6224C130.498 18.6224 131.853 18.0201 132.365 17.1167L135.707 19.1644C134.623 21.1218 132.124 22.2661 129.052 22.2661ZM125.469 12.8406H131.853C131.642 11.3952 130.347 10.3713 128.781 10.3713C127.005 10.3713 125.891 11.2747 125.469 12.8406Z" fill="white"/>
<path d="M137.571 21.965V7.17934H141.817V8.92591C142.54 7.66115 144.106 6.87821 145.371 6.87821C146.124 6.87821 146.696 6.96855 147.147 7.14923L146.907 11.1242C146.365 10.9134 145.642 10.7929 145.04 10.7929C144.076 10.7929 142.54 11.5759 141.817 13.0213V21.965H137.571Z" fill="white"/>
</svg>
